<svg height="48" width="48" xmlns="http://www.w3.org/2000/svg" xmlns:xlink="http://www.w3.org/1999/xlink"><linearGradient id="a"><stop offset="0" stop-color="#fff"/><stop offset="1" stop-color="#fff" stop-opacity="0"/></linearGradient><linearGradient id="b" gradientUnits="userSpaceOnUse" x1="3.48275" x2="15.834968" xlink:href="#a" y1="10.673688" y2="21.765462"/><filter id="c" color-interpolation-filters="sRGB" height="1.066213" width="1.063446" x="-.031723" y="-.033106"><feGaussianBlur stdDeviation=".25338816"/></filter><linearGradient id="d" gradientUnits="userSpaceOnUse" x1="24.9507" x2="39.21118" xlink:href="#a" y1="11.389284" y2="24.270056"/><linearGradient id="e" gradientUnits="userSpaceOnUse" x1="20.166977" x2="21.908278" y1="39.440014" y2="31.926226"><stop offset="0" stop-opacity=".435"/><stop offset="1" stop-opacity="0"/></linearGradient><filter id="f" color-interpolation-filters="sRGB" height="1.18759" width="1.046402" x="-.023201" y="-.093795"><feGaussianBlur stdDeviation=".32121219"/></filter><g fill-rule="evenodd"><path d="m19.36248 27.78998c-3.32059 3.637701-14.1378726 7.923122-18.1911889 1.982222-4.0533162-5.940899 13.0418819-24.9927207 19.4371599-22.2174161 6.395278 2.7753051 2.074618 16.5974931-1.245971 20.2351941z" fill="#0f0"/><path d="m22.747548 31.589241c7.224633 1.655478 21.945961 6.353862 24.337982-1.982224s-9.88542-22.1019793-20.849261-22.300009c-10.963842-.1980297-10.713355 22.626755-3.488721 24.282233z" fill="#00f"/><path d="m34.97866 39.022578c-3.241579 3.870719-9.701028-1.135278-17.054619-2.416639-7.353591-1.28136-14.8133709.96694-15.6729073-4.190772-.8595364-5.157713 9.7192903-9.713086 21.5137803-6.524818 11.794488 3.188268 14.455326 9.26151 11.213746 13.132229z" fill="#f00"/><g stroke-width=".15"><path d="m15.305878 24.83951c-6.9473389.156246-12.2542226 2.898625-13.0082562 6.184063 4.6499559 3.986598 14.0162772.105776 17.0654012-3.234535.537867-.589232 1.098464-1.46468 1.639017-2.498109-1.973148-.343614-3.89246-.491985-5.696162-.451419z" fill="#ff0" stroke="#ff0"/><path d="m22.112032 8.5884096c-4.946279 3.5926764-5.583249 13.8962914-3.004865 19.4492924.08246-.08267.18088-.166528.255856-.248664 3.014611-3.302502 6.85242-14.996466 2.749009-19.2006284z" fill="#0ff" stroke="#0ff"/><path d="m18.095285 24.931324c.743729 3.42171 2.337518 6.128185 4.651578 6.658437 3.44274.788881 8.583211 2.254445 13.285273 2.685562-.885201-3.085966-4.675991-6.333532-12.26762-8.38569-1.940466-.524543-3.840101-.821171-5.669231-.958309z" fill="#f0f" stroke="#f0f"/></g><path d="m18.095285 24.931324c.245994 1.131755.583892 2.184627 1.011882 3.106378.08246-.08267.18088-.166528.255856-.248664.537867-.589232 1.098464-1.46468 1.639017-2.498109-.98686-.171857-1.955889-.288314-2.906755-.359605z" fill="#fff" stroke="#fff" stroke-width=".2"/><path d="m1.9082621 26.054985c-2.22454711.234163 3.2154357-8.232061 5.9633193-11.56884 4.0761556-3.277344 10.1839546-8.7575151 12.4037046-6.0825851 2.21975 2.6749301-9.353168 4.0893981-11.926639 7.2752491-3.0530165 3.123528-4.2158376 10.142013-6.4403849 10.376176z" fill="url(#b)" filter="url(#c)" opacity=".886" transform="matrix(.98494932 0 0 .97935065 .008384 .851157)"/><path d="m23.853277 29.990776c-4.967674-1.3163 2.857637-10.736655 5.60552-14.073434 4.076156-3.277344 14.477545-7.8033844 17.53216-4.055057 3.054615 3.748328-12.692627 3.135267-15.266098 6.321118-3.053017 3.123528-2.903908 13.123673-7.871582 11.807373z" fill="url(#d)" filter="url(#c)" opacity=".886" transform="matrix(-.98494932 0 0 .97935065 68.37471 -2.185737)"/><path d="m35.504645 38.976255c-3.291113 3.952332-9.849266-1.159215-17.315225-2.467593-7.465959-1.308377-15.039729.987328-15.9123997-4.279133 6.2833125 2.60512 4.7393531-1.092171 16.7140697 2.163321 11.974716 3.255492 14.318414 1.346671 16.513555 4.583405z" fill="url(#e)" filter="url(#f)" transform="matrix(.98494932 0 0 .97935065 .008384 .851157)"/></g></svg>